<svg preserveAspectRatio="xMidYMid meet" width="365.001" height="94.8778" overflow="visible" style="display: block;" viewBox="0 0 365.001 94.8778" fill="none" xmlns="http://www.w3.org/2000/svg">
<g id="Logo_ko_Light">
<path id="Vector" d="M13.7141 52.4112C17.1178 54.3505 21.4224 53.2068 23.4246 49.8254L41.2438 19.1444C43.196 15.7631 42.0447 11.4866 38.641 9.49757C35.2374 7.55826 30.9327 8.70196 28.9305 12.0833L11.1113 42.7643C9.15919 46.1457 10.3104 50.4221 13.7141 52.4112Z" fill="var(--fill-0, #4944FE)"/>
<path id="Vector_2" d="M65.4209 45.6492C65.4209 49.5278 68.5743 52.7103 72.5286 52.7103C76.4829 52.7103 79.6363 49.5776 79.6363 45.6492C79.6363 41.7208 76.4829 38.5881 72.5286 38.5881C68.5743 38.5881 65.4209 41.7208 65.4209 45.6492Z" fill="var(--fill-0, #4944FE)"/>
<path id="Vector_3" d="M41.096 52.4112C44.4997 54.3505 48.8044 53.2068 50.8065 49.8254L68.6258 19.1444C70.5779 15.7631 69.4266 11.4866 66.023 9.49757C62.6193 7.55826 58.3146 8.70196 56.3125 12.0833L38.4932 42.7643C36.5411 46.1457 37.6924 50.4221 41.096 52.4112Z" fill="var(--fill-0, #4944FE)"/>
<path id="Vector_4" d="M44.8983 59.273C40.9941 59.273 37.7906 62.4057 37.7906 66.3341C37.7906 70.2624 40.944 73.3952 44.8983 73.3952C48.8526 73.3952 52.006 70.2624 52.006 66.3341C52.006 62.4057 48.8526 59.273 44.8983 59.273Z" fill="var(--fill-0, #4944FE)"/>
<path id="Vector_5" d="M82.4886 67.5768C80.8368 67.5768 79.2851 68.1735 77.9837 69.2178C68.9239 76.5772 57.3614 81.0029 44.7478 81.0029C32.1342 81.0029 20.5717 76.5772 11.5119 69.2178C10.2605 68.1735 8.6588 67.5768 7.00702 67.5768C0.399877 67.5768 -2.50326 75.7816 2.60226 79.9089C14.0646 89.2574 28.7305 94.8764 44.6977 94.8764C60.665 94.8764 75.3308 89.2574 86.7932 79.9089C91.8987 75.7319 88.9956 67.5768 82.3885 67.5768H82.4886Z" fill="var(--fill-0, #9996FE)"/>
<path id="Vector_6" d="M175.99 34.5596H169.083V7.06111C169.083 3.18248 165.929 8.75967e-06 161.975 8.75967e-06C158.021 8.75967e-06 154.867 3.13275 154.867 7.06111V76.1306C154.867 80.0093 158.021 83.1917 161.975 83.1917C165.929 83.1917 169.083 80.059 169.083 76.1306V48.6321H175.99C179.894 48.6321 183.098 45.4994 183.098 41.571C183.098 37.6426 179.944 34.5099 175.99 34.5099V34.5596Z" fill="var(--fill-0, #4944FE)"/>
<path id="Vector_7" d="M270.89 7.11206C270.89 3.21232 267.719 0.050959 263.807 0.050959C259.896 0.050959 256.725 3.21232 256.725 7.11206V47.7383C256.725 51.638 259.896 54.7994 263.807 54.7994C267.719 54.7994 270.89 51.638 270.89 47.7383V7.11206Z" fill="var(--fill-0, #4944FE)"/>
<path id="Vector_8" d="M218.886 52.9088C233.101 52.9088 244.564 41.4718 244.564 27.3993C244.564 13.3268 233.051 1.88981 218.886 1.88981C204.721 1.88981 193.208 13.3268 193.208 27.3993C193.208 41.4718 204.721 52.9088 218.886 52.9088ZM218.886 15.9623C225.243 15.9623 230.398 21.0841 230.398 27.3993C230.398 33.7145 225.243 38.8363 218.886 38.8363C212.529 38.8363 207.374 33.7145 207.374 27.3993C207.374 21.0841 212.529 15.9623 218.886 15.9623Z" fill="var(--fill-0, #4944FE)"/>
<path id="Vector_9" d="M264.685 59.8707H264.484C261.581 59.8707 258.979 61.6111 257.927 64.2963C254.173 73.8934 244.763 80.7059 233.751 80.7059C222.739 80.7059 213.329 73.8934 209.575 64.2963C208.524 61.6111 205.871 59.8707 203.018 59.8707C197.963 59.8707 194.609 64.893 196.461 69.5672C202.367 84.3856 216.883 94.8778 233.901 94.8778C250.92 94.8778 265.486 84.3856 271.342 69.5672C273.194 64.893 269.79 59.8707 264.785 59.8707H264.685Z" fill="var(--fill-0, #9996FE)"/>
<path id="Vector_10" d="M357.934 74.2409H289.761C285.907 74.2409 282.603 77.1747 282.453 80.9539C282.253 84.9817 285.506 88.3134 289.511 88.3134H357.684C361.538 88.3134 364.842 85.3795 364.992 81.6003C365.192 77.5725 361.939 74.2409 357.934 74.2409Z" fill="var(--fill-0, #4944FE)"/>
<path id="Vector_11" d="M315.241 58.4289H347.376C351.28 58.4289 354.483 55.2961 354.483 51.3677C354.483 47.4394 351.33 44.3066 347.376 44.3066H315.241C308.884 44.3066 303.728 39.1849 303.728 32.8696C303.728 26.5544 308.884 21.4326 315.241 21.4326H347.376C351.28 21.4326 354.483 18.2999 354.483 14.3715C354.483 10.4432 351.33 7.31044 347.376 7.31044H315.241C301.026 7.31044 289.563 18.7474 289.563 32.8199C289.563 46.8924 301.076 58.3294 315.241 58.3294V58.4289Z" fill="var(--fill-0, #4944FE)"/>
<path id="Vector_12" d="M109.919 4.72291C109.719 4.72291 109.519 4.72291 109.268 4.72291C109.218 4.72291 109.118 4.72291 109.068 4.72291C105.164 4.72291 101.961 7.85565 101.961 11.784C101.961 15.7124 104.814 18.497 108.468 18.7954C108.618 18.7954 108.768 18.7954 108.968 18.7954H109.919C119.88 18.7954 128.339 25.2101 131.292 34.111H106.365C102.461 34.111 99.2576 37.2438 99.2576 41.1721C99.2576 45.1005 102.411 48.2332 106.365 48.2332H131.292C128.339 57.1342 119.88 63.5489 109.919 63.5489H108.968C108.818 63.5489 108.668 63.5489 108.518 63.5489C108.367 63.5489 108.217 63.5489 108.067 63.5489C104.163 63.5489 100.959 66.6816 100.959 70.61C100.959 74.5383 104.113 77.6711 108.067 77.6711C112.021 77.6711 108.418 77.6711 108.618 77.6711C108.618 77.6711 108.618 77.6711 108.668 77.6711C109.068 77.6711 109.469 77.6711 109.869 77.6711C130.141 77.6711 146.559 61.3609 146.559 41.2219C146.559 21.0828 130.141 4.77263 109.869 4.77263L109.919 4.72291Z" fill="var(--fill-0, #4944FE)"/>
</g>
</svg>
