<svg preserveAspectRatio="none" width="100%" height="100%" overflow="visible" style="display: block;" viewBox="0 0 24 24" fill="none" xmlns="http://www.w3.org/2000/svg">
<g id="&#226;&#156;&#133;" clip-path="url(#clip0_0_4)">
<path id="Vector" d="M17.1 2.1H6.9C4.24903 2.1 2.1 4.24903 2.1 6.9V17.1C2.1 19.751 4.24903 21.9 6.9 21.9H17.1C19.751 21.9 21.9 19.751 21.9 17.1V6.9C21.9 4.24903 19.751 2.1 17.1 2.1Z" fill="var(--fill-0, #00BD79)"/>
<g id="Vector_2">
</g>
<g id="Group">
<g id="Vector_3">
</g>
<path id="Vector_4" d="M10.8618 16.0116C10.5852 16.0116 10.3092 15.9066 10.098 15.6954L6.51117 12.1086C6.08937 11.6868 6.08937 11.0028 6.51117 10.581C6.93297 10.1598 7.61697 10.1598 8.03877 10.581L10.8618 13.4046L15.9612 8.30516C16.3836 7.88396 17.0676 7.88396 17.4888 8.30516C17.9106 8.72696 17.9106 9.41096 17.4888 9.83276L11.6256 15.6954C11.4144 15.906 11.1384 16.0116 10.8618 16.0116Z" fill="var(--fill-0, white)"/>
</g>
</g>
<defs>
<clipPath id="clip0_0_4">
<rect width="24" height="24" fill="white"/>
</clipPath>
</defs>
</svg>
